<svg id="Component_3_1" data-name="Component 3 – 1" xmlns="http://www.w3.org/2000/svg" width="45" height="45" viewBox="0 0 45 45">
  <path id="Path_11" data-name="Path 11" d="M28.25,5.75a22.5,22.5,0,1,0,22.5,22.5A22.5,22.5,0,0,0,28.25,5.75ZM42.068,23.794,25.36,40.5a.7.7,0,0,1-.995,0l-9.935-9.963a.7.7,0,0,1,0-.994L17.9,26.088a.7.7,0,0,1,.5-.2h0a.706.706,0,0,1,.5.206l5.979,5.995L37.614,19.339a.7.7,0,0,1,.994,0l3.46,3.461a.7.7,0,0,1,0,.994Z" transform="translate(-5.75 -5.75)" fill="#b1abab"/>
</svg>
