<svg id="Component_11_1" data-name="Component 11 – 1" xmlns="http://www.w3.org/2000/svg" width="45" height="45" viewBox="0 0 45 45">
  <path id="Path_17" data-name="Path 17" d="M56.016,19H26.984A7.984,7.984,0,0,0,19,26.984V56.016A7.984,7.984,0,0,0,26.984,64H56.016A7.984,7.984,0,0,0,64,56.016V26.984A7.984,7.984,0,0,0,56.016,19Zm3.629,37.016a3.629,3.629,0,0,1-3.629,3.629H26.984a3.629,3.629,0,0,1-3.629-3.629V26.984a3.629,3.629,0,0,1,3.629-3.629H56.016a3.629,3.629,0,0,1,3.629,3.629Z" transform="translate(-19 -19)" fill="#3e3737"/>
  <path id="Path_18" data-name="Path 18" d="M53.373,36H40.294v4.36h7.818L35.76,52.712l3.081,3.081L51.194,43.441v7.818h4.36V38.18A2.18,2.18,0,0,0,53.373,36Z" transform="translate(-23.606 -23.672)" fill="#3e3737"/>
</svg>
