<svg id="Component_1_1" data-name="Component 1 – 1" xmlns="http://www.w3.org/2000/svg" width="45" height="45" viewBox="0 0 45 45">
  <path id="Path_1" data-name="Path 1" d="M16,38.472A22.5,22.5,0,1,1,38.472,61,22.457,22.457,0,0,1,16,38.472Zm14.687,8.779v-17.5a1.308,1.308,0,0,1,1.325-1.325H35.27A1.308,1.308,0,0,1,36.6,29.748v17.5a1.344,1.344,0,0,1-1.325,1.325H32.012A1.344,1.344,0,0,1,30.687,47.252Zm9.718,0v-17.5a1.308,1.308,0,0,1,1.325-1.325h3.2a1.276,1.276,0,0,1,1.325,1.325v17.5a1.308,1.308,0,0,1-1.325,1.325h-3.2A1.344,1.344,0,0,1,40.4,47.252Z" transform="translate(-16 -16)" fill="#b1abab" fill-rule="evenodd"/>
</svg>
