<svg id="Component_9_1" data-name="Component 9 – 1" xmlns="http://www.w3.org/2000/svg" width="45" height="42.481" viewBox="0 0 45 42.481">
  <path id="Path_14" data-name="Path 14" d="M49.626,47.618l.9,11.546a1.681,1.681,0,0,1-2.415,1.609l-2.321-1.23A21.251,21.251,0,0,1,8.327,55.9a.926.926,0,0,1,.853-1.278h5.873a.917.917,0,0,1,.805.473A14.086,14.086,0,0,0,39.348,56.23l-2.226-1.136a1.648,1.648,0,0,1-.047-2.886L47.115,46.34A1.655,1.655,0,0,1,49.626,47.618Z" transform="translate(-5.53 -26.667)" fill="#267fe6"/>
  <path id="Path_15" data-name="Path 15" d="M24.991,5.1a21.3,21.3,0,0,1,19.7,13.249.926.926,0,0,1-.853,1.278h-5.92a.917.917,0,0,1-.805-.473,14.112,14.112,0,0,0-23.491-1.088L15.851,19.2a1.648,1.648,0,0,1,.047,2.886L5.857,27.955a1.644,1.644,0,0,1-2.463-1.278l-.9-11.593A1.681,1.681,0,0,1,4.91,13.475l2.321,1.23A21.221,21.221,0,0,1,24.991,5.1Z" transform="translate(-2.49 -5.1)" fill="#267fe6"/>
</svg>
